<svg xmlns="http://www.w3.org/2000/svg" version="1.1" xmlns:xlink="http://www.w3.org/1999/xlink" xmlns:svgjs="http://svgjs.dev/svgjs" width="1200pt" height="1200pt"><svg width="1200pt" height="1200pt" version="1.1" viewBox="0 0 1200 1200" xmlns="http://www.w3.org/2000/svg">
 <path d="m225 330.39 232.85 94.449 0.14844 241c0 0.75 0.64844 1.1992 0.75 1.9492 0.19922 1.1992 0.39844 2.1484 0.89844 3.1992 0.25 0.55078-0.046876 1.1016 0.30078 1.6016 0.35156 0.5 0.90234 0.75 1.3516 1.25s0.84766 0.84766 1.3984 1.3008c0.69922 0.59766 1.3008 1.3477 2.1016 1.7969 0.050781 0 0.050781 0.10156 0.097657 0.10156l235.1 117.55v247l-475-237.5zm486.9 442.15-216.05-108 217.6-138.45 227.25 105.9zm-248.3-596.8 220.95 88.352-215.5 138.35-228.65-92.797zm515.95 455.6c0.050781-0.94922-0.69922-1.6016-0.85156-2.5-0.19922-1.3516-0.19922-2.4492-0.80078-3.6523-0.19922-0.39844 0.050781-0.89844-0.19922-1.25-0.19922-0.34766-0.59766-0.34766-0.84766-0.64844-0.75-1.0508-1.75-1.4492-2.75-2.25-0.70312-0.55078-0.90234-1.5-1.75-1.8984l-247.35-115.25v-242.05c0-0.94922-0.80078-1.5-1-2.3516-0.30078-1.6484-0.80078-2.8984-1.75-4.25-0.89844-1.3984-1.8984-2.3008-3.3008-3.25-0.75-0.5-0.94922-1.3984-1.8008-1.75l-250-100c-0.29688-0.097656-0.59766 0.10156-0.89844 0-1.6016-0.5-3.1016-0.050781-4.8008 0.050781-1.5977 0.14844-3.0977-0.050781-4.5 0.69922-0.25 0.15234-0.59766-0.050781-0.84766 0.15234l-250 150c-0.5 0.25-0.55078 0.89844-0.95312 1.25-1.0977 0.84766-1.6992 1.7969-2.4492 3-0.5 0.69922-1.4492 0.94922-1.75 1.75-0.14844 0.29688 0.10156 0.59766 0 0.89844-0.30078 0.80078-0.25 1.5-0.34766 2.3516-0.050781 0.54688-0.60156 0.89844-0.60156 1.4492v496.45c0 0.94922 0.80078 1.5508 1 2.3984-0.44922 5 1.1484 9.9531 5.8984 12.352l500 250c1.8008 0.89844 3.7031 1.3008 5.6016 1.3008 2.5 0 4.8984-0.94922 7-2.3516 0.14844-0.14844 0.39844-0.050781 0.60156-0.19922l237.7-182c0.14844-0.10156 0.14844-0.35156 0.30078-0.5 1.5-1.25 2.0469-3.1016 2.8477-4.8984 0.5-1.1523 1.4023-2 1.5508-3.25 0-0.15234 0.14844-0.25 0.14844-0.40234z" fill-rule="evenodd"></path>
</svg><style>@media (prefers-color-scheme: light) { :root { filter: none; } }
@media (prefers-color-scheme: dark) { :root { filter: invert(100%); } }
</style></svg>